# xmcd
#
# Track frame offsets:
# 150
# 17491
# 33549
# 47346
# 68900
# 81671
# 95006
# 112416
# 126431
# 140138
#
# Disc length: 2070 seconds
#
# Revision: 0
# Processed by: cddbd v1.5.2PL0 Copyright (c) Steve Scherf et al.
# Submitted via: Axialis_AX_CDPlayer 2.6
#
DISCID=9608140a
DTITLE=Billy Currington - Enjoy Yourself
DYEAR=1900
DGENRE=
TTITLE0=All Day Long
TTITLE1=Love Done Gone
TTITLE2=Pretty Good At Drinkin' Beer
TTITLE3=Until You
TTITLE4=Like My Dog
TTITLE5=Perfect Day
TTITLE6=Let Me Down Easy
TTITLE7=Bad Day Of Fishin'
TTITLE8=Enjoy Yourself
TTITLE9=Lil' Ol' Lonesome Dixie Town
EXTD=
EXTT0=
EXTT1=
EXTT2=
EXTT3=
EXTT4=
EXTT5=
EXTT6=
EXTT7=
EXTT8=
EXTT9=
PLAYORDER=
